<?xml version="1.0" encoding="utf-8"?>
<svg version="1.1" xmlns="http://www.w3.org/2000/svg" width="100%" height="100%" viewBox="0 0 1024 1024" preserveAspectRatio="xMidYMid meet">
  <path d="M512.5,0C605.387,0,691.069,22.885999999999967,769.508,68.65700000000004C847.947,114.42899999999997,910.071,176.553,955.843,254.99199999999996C1001.614,333.43100000000004,1024.5,419.11300000000006,1024.5,512C1024.5,604.887,1001.614,690.569,955.843,769.008C910.071,847.447,847.947,909.571,769.508,955.343C691.069,1001.114,605.387,1024,512.5,1024C419.613,1024,333.931,1001.114,255.492,955.343C177.053,909.571,114.929,847.447,69.157,769.008C23.386,690.569,0.5,604.887,0.5,512C0.5,419.11300000000006,23.386,333.43100000000004,69.157,254.99199999999996C114.929,176.553,177.053,114.42899999999997,255.492,68.65700000000004C333.931,22.885999999999967,419.613,0,512.5,0C512.5,0,512.5,0,512.5,0M597.846,831.356C597.846,831.356,597.846,704.681,597.846,704.681C597.846,698.447,595.83,693.22,591.835,689.001C587.84,684.7819999999999,582.949,682.654,577.163,682.654C577.163,682.654,449.144,682.654,449.144,682.654C443.357,682.654,438.242,684.894,433.8,689.337C429.357,693.78,427.117,698.895,427.117,704.681C427.117,704.681,427.117,831.356,427.117,831.356C427.117,837.143,429.357,842.258,433.8,846.7C438.242,851.143,443.357,853.383,449.144,853.383C449.144,853.383,577.163,853.383,577.163,853.383C582.949,853.383,587.84,851.255,591.835,847.0360000000001C595.83,842.818,597.846,837.591,597.846,831.356C597.846,831.356,597.846,831.356,597.846,831.356M596.502,602.0129999999999C596.502,602.0129999999999,608.486,188.015,608.486,188.015C608.486,182.67600000000004,606.246,178.68100000000004,601.803,176.02999999999997C597.36,172.48400000000004,592.022,170.692,585.787,170.692C585.787,170.692,439.101,170.692,439.101,170.692C432.866,170.692,427.528,172.48400000000004,423.085,176.02999999999997C418.642,178.68100000000004,416.402,182.67600000000004,416.402,188.015C416.402,188.015,427.752,602.0129999999999,427.752,602.0129999999999C427.752,606.4549999999999,429.992,610.375,434.434,613.698C438.877,617.021,444.216,618.701,450.451,618.701C450.451,618.701,573.803,618.701,573.803,618.701C580.037,618.701,585.264,617.021,589.483,613.698C593.702,610.375,596.054,606.4549999999999,596.502,602.0129999999999C596.502,602.0129999999999,596.502,602.0129999999999,596.502,602.0129999999999"/>
</svg>