<?xml version="1.0" encoding="utf-8"?>
<svg version="1.1" xmlns="http://www.w3.org/2000/svg" width="100%" height="100%" viewBox="0 0 1024 1024" preserveAspectRatio="xMidYMid meet">
  <path d="M597.808,277.818C597.808,277.818,597.808,576.491,597.808,576.491C597.808,582.725,595.792,587.8399999999999,591.798,591.835C587.803,595.8299999999999,582.688,597.846,576.453,597.846C576.453,597.846,363.126,597.846,363.126,597.846C356.891,597.846,351.777,595.8299999999999,347.782,591.835C343.787,587.8399999999999,341.771,582.725,341.771,576.491C341.771,576.491,341.771,533.818,341.771,533.818C341.771,527.5830000000001,343.787,522.4680000000001,347.782,518.473C351.777,514.479,356.891,512.463,363.126,512.463C363.126,512.463,512.463,512.463,512.463,512.463C512.463,512.463,512.463,277.78,512.463,277.78C512.463,271.54600000000005,514.479,266.43100000000004,518.473,262.43600000000004C522.468,258.44100000000003,527.583,256.42499999999995,533.818,256.42499999999995C533.818,256.42499999999995,576.491,256.42499999999995,576.491,256.42499999999995C582.725,256.42499999999995,587.84,258.44100000000003,591.835,262.43600000000004C595.83,266.43100000000004,597.846,271.54600000000005,597.846,277.78C597.846,277.78,597.808,277.818,597.808,277.818M875.164,512.5C875.164,446.717,858.923,386.049,826.48,330.496C794.037,274.943,750.02,230.92600000000004,694.466,198.48299999999995C638.913,166.039,578.245,149.79899999999998,512.463,149.79899999999998C446.68,149.79899999999998,386.012,166.039,330.459,198.48299999999995C274.906,230.92600000000004,230.889,274.943,198.445,330.496C166.002,386.049,149.762,446.717,149.762,512.5C149.762,578.283,166.002,638.951,198.445,694.504C230.889,750.057,274.906,794.0740000000001,330.459,826.517C386.012,858.961,446.68,875.201,512.463,875.201C578.245,875.201,638.913,858.961,694.466,826.517C750.02,794.0740000000001,794.037,750.057,826.48,694.504C858.923,638.951,875.164,578.283,875.164,512.5C875.164,512.5,875.164,512.5,875.164,512.5M1024.5,512.5C1024.5,605.387,1001.614,691.069,955.843,769.508C910.071,847.947,847.947,910.071,769.508,955.843C691.069,1001.614,605.387,1024.5,512.5,1024.5C419.613,1024.5,333.931,1001.614,255.492,955.843C177.053,910.071,114.929,847.947,69.157,769.508C23.386,691.069,0.5,605.387,0.5,512.5C0.5,419.61300000000006,23.386,333.93100000000004,69.157,255.49199999999996C114.929,177.053,177.053,114.92899999999997,255.492,69.15700000000004C333.931,23.385999999999967,419.613,0.5,512.5,0.5C605.387,0.5,691.069,23.385999999999967,769.508,69.15700000000004C847.947,114.92899999999997,910.071,177.053,955.843,255.49199999999996C1001.614,333.93100000000004,1024.5,419.61300000000006,1024.5,512.5C1024.5,512.5,1024.5,512.5,1024.5,512.5"/>
</svg>