<?xml version="1.0" encoding="utf-8"?>
<svg version="1.1" xmlns="http://www.w3.org/2000/svg" width="100%" height="100%" viewBox="0 0 1024 1024" preserveAspectRatio="xMidYMid meet">
  <path class="svg-icon" d="M542.479,780.656C542.479,780.656,845.147,477.98900000000003,845.147,477.98900000000003C853.584,469.55100000000004,857.803,459.54600000000005,857.803,447.972C857.803,436.398,853.584,426.39300000000003,845.147,417.95500000000004C845.147,417.95500000000004,777.162,349.97,777.162,349.97C768.724,341.53200000000004,758.718,337.31399999999996,747.145,337.31399999999996C735.571,337.31399999999996,725.566,341.53200000000004,717.128,349.97C717.128,349.97,512.463,554.636,512.463,554.636C512.463,554.636,307.797,349.97,307.797,349.97C299.36,341.53200000000004,289.354,337.31399999999996,277.78,337.31399999999996C266.207,337.31399999999996,256.201,341.53200000000004,247.764,349.97C247.764,349.97,179.778,417.95500000000004,179.778,417.95500000000004C171.341,426.39300000000003,167.122,436.398,167.122,447.972C167.122,459.54600000000005,171.341,469.55100000000004,179.778,477.98900000000003C179.778,477.98900000000003,482.446,780.656,482.446,780.656C490.884,789.094,500.889,793.313,512.463,793.313C524.036,793.313,534.042,789.094,542.479,780.656C542.479,780.656,542.479,780.656,542.479,780.656M1024.5,512C1024.5,604.887,1001.614,690.569,955.843,769.008C910.071,847.447,847.947,909.571,769.508,955.343C691.069,1001.114,605.387,1024,512.5,1024C419.613,1024,333.931,1001.114,255.492,955.343C177.053,909.571,114.929,847.447,69.157,769.008C23.386,690.569,0.5,604.887,0.5,512C0.5,419.11300000000006,23.386,333.43100000000004,69.157,254.99199999999996C114.929,176.553,177.053,114.42899999999997,255.492,68.65700000000004C333.931,22.885999999999967,419.613,0,512.5,0C605.387,0,691.069,22.885999999999967,769.508,68.65700000000004C847.947,114.42899999999997,910.071,176.553,955.843,254.99199999999996C1001.614,333.43100000000004,1024.5,419.11300000000006,1024.5,512C1024.5,512,1024.5,512,1024.5,512" fill="#999"/>
</svg>