<?xml version="1.0" encoding="utf-8"?>
<svg version="1.1" xmlns="http://www.w3.org/2000/svg" width="100%" height="100%" viewBox="0 0 1024 1024" preserveAspectRatio="xMidYMid meet">
  <path class="svg-icon" d="M597.308,831.991C597.308,831.991,597.308,703.972,597.308,703.972C597.308,697.7370000000001,595.292,692.6220000000001,591.298,688.6279999999999C587.303,684.633,582.188,682.617,575.953,682.617C575.953,682.617,447.935,682.617,447.935,682.617C441.7,682.617,436.585,684.633,432.59,688.6279999999999C428.596,692.6220000000001,426.58,697.7370000000001,426.58,703.972C426.58,703.972,426.58,831.991,426.58,831.991C426.58,838.225,428.596,843.34,432.59,847.335C436.585,851.33,441.7,853.346,447.935,853.346C447.935,853.346,575.953,853.346,575.953,853.346C582.188,853.346,587.303,851.33,591.298,847.335C595.292,843.34,597.308,838.225,597.308,831.991C597.308,831.991,597.308,831.991,597.308,831.991M767.963,383.981C767.963,344.89300000000003,755.642,308.64099999999996,730.965,275.302C706.287,241.962,675.523,216.16499999999996,638.637,197.98299999999995C601.751,179.80100000000004,563.969,170.692,525.291,170.654C417.283,170.654,334.85,217.99400000000003,277.952,312.673C271.27,323.351,273.062,332.68399999999997,283.291,340.674C283.291,340.674,371.288,407.352,371.288,407.352C374.386,410.00300000000004,378.605,411.347,383.944,411.347C391.075,411.347,396.6,408.697,400.595,403.35799999999995C424.153,373.154,443.268,352.69500000000005,457.94,342.01800000000003C473.061,331.34000000000003,492.176,326.001,515.285,326.001C536.603,326.001,555.606,331.788,572.295,343.32399999999996C588.983,354.861,597.308,368.00199999999995,597.308,382.67499999999995C597.308,399.587,592.866,413.139,583.98,423.331C575.095,433.524,559.974,443.529,538.657,453.34799999999996C510.656,465.78,484.97,485.00699999999995,461.636,511.029C438.302,537.0509999999999,426.617,564.94,426.617,594.6949999999999C426.617,594.6949999999999,426.617,618.701,426.617,618.701C426.617,624.9359999999999,428.633,630.05,432.628,634.0450000000001C436.622,638.04,441.737,640.056,447.972,640.056C447.972,640.056,575.991,640.056,575.991,640.056C582.225,640.056,587.34,638.04,591.335,634.0450000000001C595.33,630.05,597.346,624.9359999999999,597.346,618.701C597.346,610.2629999999999,602.125,599.25,611.682,585.698C621.24,572.145,633.336,561.1320000000001,648.008,552.694C662.232,544.7049999999999,673.097,538.358,680.676,533.691C688.254,529.024,698.447,521.222,711.327,510.35699999999997C724.207,499.49300000000005,734.101,488.81600000000003,741.007,478.36199999999997C747.914,467.908,754.149,454.46799999999996,759.674,438.04100000000005C765.2,421.61400000000003,767.963,403.619,768,384.05600000000004C768,384.05600000000004,767.963,383.981,767.963,383.981M1024,512C1024,604.887,1001.114,690.569,955.343,769.008C909.571,847.447,847.447,909.571,769.008,955.343C690.569,1001.114,604.887,1024,512,1024C419.113,1024,333.431,1001.114,254.992,955.343C176.553,909.571,114.429,847.447,68.657,769.008C22.886,690.569,0,604.887,0,512C0,419.11300000000006,22.886,333.43100000000004,68.657,254.99199999999996C114.429,176.553,176.553,114.42899999999997,254.992,68.65700000000004C333.431,22.885999999999967,419.113,0,512,0C604.887,0,690.569,22.885999999999967,769.008,68.65700000000004C847.447,114.42899999999997,909.571,176.553,955.343,254.99199999999996C1001.114,333.43100000000004,1024,419.11300000000006,1024,512C1024,512,1024,512,1024,512" fill="#999"/>
</svg>